<svg fill="#FFFFFF" class="prft_floating_share__icon" version="1.1" xmlns="http://www.w3.org/2000/svg" xmlns:xlink="http://www.w3.org/1999/xlink" height="50px" width="50px" x="0px" y="0px" viewBox="0 0 50 50" enable-background="new 0 0 50 50" xml:space="preserve"> <path d="M35.2,13H14.9c-1,0-1.8,0.8-1.8,1.7v20.5c0,1,0.8,1.7,1.8,1.7h20.3c1,0,1.8-0.8,1.8-1.7V14.7 C36.8,13.8,36.1,13,35.2,13z M20.2,33.5h-3.6V22h3.5v11.5H20.2z M18.4,20.4c-1.1,0-2.1-0.9-2.1-2s0.9-2.1,2-2.1s2.1,0.9,2.1,2l0,0 C20.5,19.5,19.5,20.4,18.4,20.4L18.4,20.4z M33.3,33.5h-3.5v-5.6c0-1.3,0-3-1.8-3S26,26.3,26,27.8v5.7h-3.5V22h3.4v1.6l0,0 c0.7-1.2,2-1.9,3.3-1.9c3.6,0,4.2,2.4,4.2,5.5V33.5L33.3,33.5z"></path></svg>