<svg fill="#FFFFFF" class="prft_floating_share__icon" version="1.1" xmlns="http://www.w3.org/2000/svg"
  xmlns:xlink="http://www.w3.org/1999/xlink" height="50px" width="50px" x="0px" y="0px" viewBox="0 0 50 50"
  enable-background="new 0 0 50 50" xml:space="preserve">
  <g>
    <path
      d="M32.158,21.33c0.007,0.158,0.012,0.316,0.012,0.477c0,4.88-3.716,10.507-10.508,10.507 c-2.087,0-4.027-0.61-5.662-1.659c0.29,0.034,0.584,0.051,0.881,0.051c1.731,0,3.322-0.589,4.586-1.58 c-1.615-0.029-2.979-1.098-3.447-2.563c0.224,0.042,0.455,0.065,0.694,0.065c0.336,0,0.663-0.045,0.971-0.13 c-1.688-0.339-2.962-1.832-2.962-3.621c0-0.016,0-0.031,0-0.046c0.499,0.277,1.068,0.443,1.675,0.461 c-0.991-0.661-1.644-1.793-1.644-3.074c0-0.677,0.182-1.311,0.501-1.857c1.819,2.235,4.542,3.705,7.611,3.858 c-0.064-0.27-0.097-0.551-0.097-0.841c0-2.039,1.654-3.691,3.693-3.691c1.062,0,2.021,0.448,2.696,1.165 c0.839-0.165,1.63-0.473,2.345-0.896c-0.277,0.862-0.861,1.586-1.624,2.042c0.747-0.088,1.459-0.287,2.12-0.58 C33.506,20.158,32.879,20.809,32.158,21.33z">
    </path>
  </g>
</svg>